<svg xmlns="http://www.w3.org/2000/svg" viewBox="0 0 1024 1024" role="img" aria-labelledby="t d">
<title id="t">A+T The Verdant</title><desc id="d">Behemoth Core app icon for Alterations of Transformations: The Verdant</desc>
<defs>
<linearGradient id="bg" x1="0" y1="0" x2="0" y2="1"><stop stop-color="#0b1a1f"/><stop offset=".58" stop-color="#061115"/><stop offset="1" stop-color="#02080b"/></linearGradient>
<linearGradient id="metal" x1="0" y1="0" x2="1" y2="1"><stop stop-color="#778388"/><stop offset=".08" stop-color="#242d31"/><stop offset=".24" stop-color="#11171a"/><stop offset=".52" stop-color="#3d484d"/><stop offset=".74" stop-color="#0a0f12"/><stop offset="1" stop-color="#69757b"/></linearGradient>
<linearGradient id="silver" x1="0" y1="0" x2="0" y2="1"><stop stop-color="#f4f6f4"/><stop offset=".22" stop-color="#9ba6aa"/><stop offset=".48" stop-color="#f8f9f8"/><stop offset=".73" stop-color="#707b80"/><stop offset="1" stop-color="#dce2e0"/></linearGradient>
<linearGradient id="cyan" x1="0" y1="0" x2="1" y2="1"><stop stop-color="#8ffcf8"/><stop offset=".5" stop-color="#31ece7"/><stop offset="1" stop-color="#0db8c2"/></linearGradient>
<filter id="glow" x="-40%" y="-40%" width="180%" height="180%"><feGaussianBlur stdDeviation="9" result="b"/><feMerge><feMergeNode in="b"/><feMergeNode in="SourceGraphic"/></feMerge></filter>
<pattern id="scratches" width="80" height="80" patternUnits="userSpaceOnUse"><path d="M8 18l22-7M45 32l19 4M18 58l28-13M56 67l11-5" stroke="#9aa8ac" stroke-width="1.2" opacity=".14"/></pattern>
</defs>
<rect width="1024" height="1024" fill="#02070a"/>
<path d="M150 36h724l114 114v724L874 988H150L36 874V150z" fill="url(#metal)" stroke="#0a0d0f" stroke-width="18"/>
<path d="M176 72h672l104 104v672L848 952H176L72 848V176z" fill="#0a1115" stroke="#667279" stroke-width="6"/>
<path d="M204 105h616l99 99v616l-99 99H204l-99-99V204z" fill="url(#bg)" stroke="#2ae7e2" stroke-width="10" filter="url(#glow)"/>
<path d="M221 124h582l92 92v582l-92 92H221l-92-92V216z" fill="none" stroke="#164e54" stroke-width="5"/>
<path d="M204 105h616l99 99v616l-99 99H204l-99-99V204z" fill="url(#scratches)" opacity=".5"/>
<g fill="#070b0d" stroke="#89959a" stroke-width="8"><circle cx="144" cy="144" r="47"/><circle cx="880" cy="144" r="47"/><circle cx="144" cy="880" r="47"/><circle cx="880" cy="880" r="47"/></g>
<g fill="#1b2327" stroke="#05090b" stroke-width="5"><circle cx="144" cy="144" r="19"/><circle cx="880" cy="144" r="19"/><circle cx="144" cy="880" r="19"/><circle cx="880" cy="880" r="19"/></g>
<g fill="#ffb12d" filter="url(#glow)"><rect x="78" y="374" width="15" height="130" rx="7.5"/><rect x="931" y="374" width="15" height="130" rx="7.5"/></g>
<g fill="none" stroke="#547b39" stroke-width="8" opacity=".74"><path d="M810 108c4 48-30 66-16 113s57 50 51 104"/><path d="M831 128c29 23 38 48 31 79"/><path d="M181 917c-2-42 24-62 15-101s-47-48-40-90"/></g>
<g fill="#668e43" opacity=".8"><path d="M795 145q30-23 57-4-4 35-45 39z"/><path d="M817 203q34-7 53 18-18 29-57 14z"/><path d="M171 860q-30 12-49-12 13-31 49-25z"/><path d="M155 804q-29 3-42-21 20-23 51-12z"/></g>
<text x="364" y="600" text-anchor="middle" fill="url(#silver)" stroke="#e7eceb" stroke-width="2.2" font-family="Arial Black,Impact,Arial,sans-serif" font-size="300" font-weight="900">A</text>
<text x="512" y="560" text-anchor="middle" fill="url(#cyan)" font-family="Arial Black,Impact,Arial,sans-serif" font-size="120" font-weight="900" filter="url(#glow)">+</text>
<text x="683" y="600" text-anchor="middle" fill="url(#silver)" stroke="#e7eceb" stroke-width="2.2" font-family="Arial Black,Impact,Arial,sans-serif" font-size="300" font-weight="900">T</text>
<path d="M285 692h132M607 692h132" stroke="#9bc7c6" stroke-width="3" opacity=".8"/>
<g fill="#ffb12d" filter="url(#glow)"><rect x="447" y="682" width="31" height="12" rx="2"/><rect x="497" y="682" width="31" height="12" rx="2"/><rect x="547" y="682" width="31" height="12" rx="2"/></g>
<text x="512" y="792" text-anchor="middle" fill="#73eee8" font-family="Arial,Helvetica,sans-serif" font-size="53" font-weight="800" letter-spacing="15">THE VERDANT</text>
</svg>