<svg xmlns="http://www.w3.org/2000/svg" viewBox="0 0 600 180"><defs><linearGradient id="m" x1="0" y1="0" x2="0" y2="1"><stop stop-color="#3c4c54"/><stop offset=".18" stop-color="#151e23"/><stop offset=".82" stop-color="#080e12"/><stop offset="1" stop-color="#2b3940"/></linearGradient><linearGradient id="q" x1="0" y1="0" x2="1" y2="1"><stop stop-color="#0b1419"/><stop offset=".55" stop-color="#061015"/><stop offset="1" stop-color="#091116"/></linearGradient><filter id="g"><feGaussianBlur stdDeviation="4" result="b"/><feMerge><feMergeNode in="b"/><feMergeNode in="SourceGraphic"/></feMerge></filter></defs><path d="M22 7h556l15 15v136l-15 15H22L7 158V22z" fill="#04080b" stroke="#111a1f" stroke-width="5"/><path d="M34 14h532l20 20v112l-20 20H34l-20-20V34z" fill="url(#m)" stroke="#53646b" stroke-width="3"/><path d="M47 27h506l18 18v90l-18 18H47l-18-18V45z" fill="url(#q)" stroke="#4c6069" stroke-width="2.5" /><path d="M53 35h494" stroke="#24343c" stroke-width="2" opacity=".7"/><g fill="#091014" stroke="#6f7c82" stroke-width="2"><circle cx="27" cy="27" r="11"/><circle cx="573" cy="27" r="11"/><circle cx="27" cy="153" r="11"/><circle cx="573" cy="153" r="11"/></g><g fill="#171d20"><circle cx="27" cy="27" r="4"/><circle cx="573" cy="27" r="4"/><circle cx="27" cy="153" r="4"/><circle cx="573" cy="153" r="4"/></g><rect x="18" y="69" width="7" height="42" rx="3.5" fill="#5c4d2f"/><rect x="575" y="69" width="7" height="42" rx="3.5" fill="#5c4d2f"/><g fill="none" stroke="#89979f" stroke-width="7"><path d="m145 38 30 42-30 46-30-46z"/><path d="M145 38v88M115 80h60"/><path d="m145 38 18 42-18 46-18-46z"/></g><text x="350" y="108" fill="#a7b0b6" font-family="Arial Narrow,Helvetica,Arial,sans-serif" font-size="48" font-weight="900" letter-spacing="3" text-anchor="middle">ALTER</text><rect x="272" y="151" width="56" height="3" rx="1.5" fill="#425158"/></svg>